<svg width="176" height="56" viewBox="0 0 176 56" fill="none" xmlns="http://www.w3.org/2000/svg">
<g filter="url(#filter0_f_347_30)">
<path d="M20.8298 41V28.3836L20.5954 23.5792H20.986L24.3061 28.5008L33.9539 41H40.2035V14.8298H34.3445V27.4462L34.6179 32.7193H34.1883L30.5948 27.2118L21.2204 14.8298H14.9708V41H20.8298ZM49.3274 41.3906C53.6631 41.3906 56.3973 39.5548 57.2956 36.5081H57.6081V41H63.0765V29.5164C63.0765 24.3995 59.9908 21.0403 53.4678 21.0403C47.0229 21.0403 42.9606 24.3995 42.9606 29.2429V29.3601H48.8587V29.2039C48.8587 26.9775 50.0695 26.1963 53.0381 26.1963C56.1629 26.1963 57.2956 26.8993 57.2956 29.4382V30.1804L48.8977 31.0397C44.7183 31.4694 42.57 33.2661 42.57 36.1566C42.57 39.4376 45.1089 41.3906 49.3274 41.3906ZM48.4681 35.766C48.4681 34.8285 49.093 34.4379 50.4992 34.3207L57.2956 33.5395C57.1394 36.3128 54.9911 37.2502 51.007 37.2502C49.2883 37.2502 48.4681 36.8206 48.4681 35.766ZM79.8345 41V35.7269H76.3191C74.2489 35.7269 73.5068 35.2191 73.5068 33.2661V26.2744H79.8345V21.4309H73.5068V17.6421H67.6478V21.4309H64.562V26.2744H67.6478V33.9301C67.6478 38.8517 70.421 41 74.991 41H79.8345ZM87.8879 41V31.1959C87.8879 27.9149 89.0987 26.3134 93.0438 26.3134C96.7154 26.3134 98.1216 27.4852 98.1216 30.7663V41H103.981V29.0086C103.981 24.4776 101.403 21.0403 96.1295 21.0403C91.1298 21.0403 88.8253 24.087 88.2003 27.4071H87.8879V14.8298H82.0289V41H87.8879ZM112.952 41.3906C117.288 41.3906 120.022 39.5548 120.921 36.5081H121.233V41H126.702V29.5164C126.702 24.3995 123.616 21.0403 117.093 21.0403C110.648 21.0403 106.586 24.3995 106.586 29.2429V29.3601H112.484V29.2039C112.484 26.9775 113.695 26.1963 116.663 26.1963C119.788 26.1963 120.921 26.8993 120.921 29.4382V30.1804L112.523 31.0397C108.343 31.4694 106.195 33.2661 106.195 36.1566C106.195 39.4376 108.734 41.3906 112.952 41.3906ZM112.093 35.766C112.093 34.8285 112.718 34.4379 114.124 34.3207L120.921 33.5395C120.764 36.3128 118.616 37.2502 114.632 37.2502C112.913 37.2502 112.093 36.8206 112.093 35.766ZM135.53 41V31.1178C135.53 27.7977 136.858 26.3134 140.569 26.3134C144.163 26.3134 145.452 27.6415 145.452 30.7663V41H151.311V28.8133C151.311 24.4776 148.772 21.0403 143.42 21.0403C138.304 21.0403 135.96 24.1651 135.452 27.4462H135.101V21.4309H129.671V41H135.53ZM161.423 41V34.1645H153.884V41H161.423Z" fill="url(#paint0_angular_347_30)" fill-opacity="0.85"/>
</g>
<path d="M20.8298 41V28.3836L20.5954 23.5792H20.986L24.3061 28.5008L33.9539 41H40.2035V14.8298H34.3445V27.4462L34.6179 32.7193H34.1883L30.5948 27.2118L21.2204 14.8298H14.9708V41H20.8298ZM49.3274 41.3906C53.6631 41.3906 56.3973 39.5548 57.2956 36.5081H57.6081V41H63.0765V29.5164C63.0765 24.3995 59.9908 21.0403 53.4678 21.0403C47.0229 21.0403 42.9606 24.3995 42.9606 29.2429V29.3601H48.8587V29.2039C48.8587 26.9775 50.0695 26.1963 53.0381 26.1963C56.1629 26.1963 57.2956 26.8993 57.2956 29.4382V30.1804L48.8977 31.0397C44.7183 31.4694 42.57 33.2661 42.57 36.1566C42.57 39.4376 45.1089 41.3906 49.3274 41.3906ZM48.4681 35.766C48.4681 34.8285 49.093 34.4379 50.4992 34.3207L57.2956 33.5395C57.1394 36.3128 54.9911 37.2502 51.007 37.2502C49.2883 37.2502 48.4681 36.8206 48.4681 35.766ZM79.8345 41V35.7269H76.3191C74.2489 35.7269 73.5068 35.2191 73.5068 33.2661V26.2744H79.8345V21.4309H73.5068V17.6421H67.6478V21.4309H64.562V26.2744H67.6478V33.9301C67.6478 38.8517 70.421 41 74.991 41H79.8345ZM87.8879 41V31.1959C87.8879 27.9149 89.0987 26.3134 93.0438 26.3134C96.7154 26.3134 98.1216 27.4852 98.1216 30.7663V41H103.981V29.0086C103.981 24.4776 101.403 21.0403 96.1295 21.0403C91.1298 21.0403 88.8253 24.087 88.2003 27.4071H87.8879V14.8298H82.0289V41H87.8879ZM112.952 41.3906C117.288 41.3906 120.022 39.5548 120.921 36.5081H121.233V41H126.702V29.5164C126.702 24.3995 123.616 21.0403 117.093 21.0403C110.648 21.0403 106.586 24.3995 106.586 29.2429V29.3601H112.484V29.2039C112.484 26.9775 113.695 26.1963 116.663 26.1963C119.788 26.1963 120.921 26.8993 120.921 29.4382V30.1804L112.523 31.0397C108.343 31.4694 106.195 33.2661 106.195 36.1566C106.195 39.4376 108.734 41.3906 112.952 41.3906ZM112.093 35.766C112.093 34.8285 112.718 34.4379 114.124 34.3207L120.921 33.5395C120.764 36.3128 118.616 37.2502 114.632 37.2502C112.913 37.2502 112.093 36.8206 112.093 35.766ZM135.53 41V31.1178C135.53 27.7977 136.858 26.3134 140.569 26.3134C144.163 26.3134 145.452 27.6415 145.452 30.7663V41H151.311V28.8133C151.311 24.4776 148.772 21.0403 143.42 21.0403C138.304 21.0403 135.96 24.1651 135.452 27.4462H135.101V21.4309H129.671V41H135.53ZM161.423 41V34.1645H153.884V41H161.423Z" fill="#242424"/>
<defs>
<filter id="filter0_f_347_30" x="0.970703" y="0.829803" width="174.452" height="54.5608" filterUnits="userSpaceOnUse" color-interpolation-filters="sRGB">
<feFlood flood-opacity="0" result="BackgroundImageFix"/>
<feBlend mode="normal" in="SourceGraphic" in2="BackgroundImageFix" result="shape"/>
<feGaussianBlur stdDeviation="7" result="effect1_foregroundBlur_347_30"/>
</filter>
<radialGradient id="paint0_angular_347_30" cx="0" cy="0" r="1" gradientUnits="userSpaceOnUse" gradientTransform="translate(88 29) rotate(90) scale(24 75)">
<stop offset="0.0995802" stop-color="#C850C0"/>
<stop offset="0.385425" stop-color="#FFCC70"/>
<stop offset="0.635279" stop-color="#4158D0"/>
</radialGradient>
</defs>
</svg>
