<?xml version="1.0" encoding="UTF-8"?>
<svg width="102px" height="107px" viewBox="0 0 102 107" version="1.1"
    xmlns="http://www.w3.org/2000/svg"
    xmlns:xlink="http://www.w3.org/1999/xlink">
    <defs>
        <filter id="filter-1">
            <feColorMatrix in="SourceGraphic" type="matrix" values="0 0 0 0 0.000000 0 0 0 0 0.000000 0 0 0 0 0.000000 0 0 0 0.600000 0"></feColorMatrix>
        </filter>
        <rect id="path-2" x="0" y="0" width="102" height="107"></rect>
    </defs>
    <g id="Page-1" stroke="none" stroke-width="1" fill="none" fill-rule="evenodd">
        <g filter="url(#filter-1)" id="Grid_8.11.20">
            <g>
                <mask id="mask-3" fill="white">
                    <use xlink:href="#path-2"></use>
                </mask>
                <g id="Mask"></g>
                <g mask="url(#mask-3)" id="Group" opacity="0.5">
                    <g transform="translate(-13.000000, -10.000000)">
                        <polygon id="Path" fill="#181717" fill-rule="nonzero" points="14.12 11.89 14.12 10.69 13.88 10.67 13.88 11.89 12.83 11.89 12.87 12.08 13.88 12.08 13.88 13.32 14.12 13.34 14.12 12.08 15.18 12.08 15.13 11.89"></polygon>
                        <polygon id="Path" fill="#181717" fill-rule="nonzero" points="26.95 11.89 26.95 10.69 26.71 10.67 26.71 11.89 25.66 11.89 25.7 12.08 26.71 12.08 26.71 13.32 26.95 13.34 26.95 12.08 28.01 12.08 27.96 11.89"></polygon>
                        <polygon id="Path" fill="#181717" fill-rule="nonzero" points="39.78 11.89 39.78 10.69 39.53 10.67 39.53 11.89 38.49 11.89 38.53 12.08 39.53 12.08 39.53 13.32 39.78 13.34 39.78 12.08 40.84 12.08 40.79 11.89"></polygon>
                        <polygon id="Path" fill="#181717" fill-rule="nonzero" points="52.61 11.89 52.61 10.69 52.36 10.67 52.36 11.89 51.32 11.89 51.36 12.08 52.36 12.08 52.36 13.32 52.61 13.34 52.61 12.08 53.67 12.08 53.62 11.89"></polygon>
                        <polygon id="Path" fill="#181717" fill-rule="nonzero" points="65.44 11.89 65.44 10.69 65.19 10.67 65.19 11.89 64.15 11.89 64.19 12.08 65.19 12.08 65.19 13.32 65.44 13.34 65.44 12.08 66.5 12.08 66.45 11.89"></polygon>
                        <polygon id="Path" fill="#181717" fill-rule="nonzero" points="78.27 11.89 78.27 10.69 78.02 10.67 78.02 11.89 76.97 11.89 77.02 12.08 78.02 12.08 78.02 13.32 78.27 13.34 78.27 12.08 79.33 12.08 79.28 11.89"></polygon>
                        <polygon id="Path" fill="#181717" fill-rule="nonzero" points="91.1 11.89 91.1 10.69 90.85 10.67 90.85 11.89 89.8 11.89 89.84 12.08 90.85 12.08 90.85 13.32 91.1 13.34 91.1 12.08 92.16 12.08 92.11 11.89"></polygon>
                        <polygon id="Path" fill="#181717" fill-rule="nonzero" points="103.93 11.89 103.93 10.69 103.68 10.67 103.68 11.89 102.63 11.89 102.67 12.08 103.68 12.08 103.68 13.32 103.93 13.34 103.93 12.08 104.98 12.08 104.93 11.89"></polygon>
                        <polygon id="Path" fill="#181717" fill-rule="nonzero" points="14.12 22.56 14.12 21.36 13.88 21.34 13.88 22.56 12.83 22.56 12.87 22.75 13.88 22.75 13.88 23.99 14.12 24.01 14.12 22.75 15.18 22.75 15.13 22.56"></polygon>
                        <polygon id="Path" fill="#181717" fill-rule="nonzero" points="26.95 22.56 26.95 21.36 26.71 21.34 26.71 22.56 25.66 22.56 25.7 22.75 26.71 22.75 26.71 23.99 26.95 24.01 26.95 22.75 28.01 22.75 27.96 22.56"></polygon>
                        <polygon id="Path" fill="#181717" fill-rule="nonzero" points="39.78 22.56 39.78 21.36 39.53 21.34 39.53 22.56 38.49 22.56 38.53 22.75 39.53 22.75 39.53 23.99 39.78 24.01 39.78 22.75 40.84 22.75 40.79 22.56"></polygon>
                        <polygon id="Path" fill="#181717" fill-rule="nonzero" points="52.61 22.56 52.61 21.36 52.36 21.34 52.36 22.56 51.32 22.56 51.36 22.75 52.36 22.75 52.36 23.99 52.61 24.01 52.61 22.75 53.67 22.75 53.62 22.56"></polygon>
                        <polygon id="Path" fill="#181717" fill-rule="nonzero" points="65.44 22.56 65.44 21.36 65.19 21.34 65.19 22.56 64.15 22.56 64.19 22.75 65.19 22.75 65.19 23.99 65.44 24.01 65.44 22.75 66.5 22.75 66.45 22.56"></polygon>
                        <polygon id="Path" fill="#181717" fill-rule="nonzero" points="78.27 22.56 78.27 21.36 78.02 21.34 78.02 22.56 76.97 22.56 77.02 22.75 78.02 22.75 78.02 23.99 78.27 24.01 78.27 22.75 79.33 22.75 79.28 22.56"></polygon>
                        <polygon id="Path" fill="#181717" fill-rule="nonzero" points="91.1 22.56 91.1 21.36 90.85 21.34 90.85 22.56 89.8 22.56 89.84 22.75 90.85 22.75 90.85 23.99 91.1 24.01 91.1 22.75 92.16 22.75 92.11 22.56"></polygon>
                        <polygon id="Path" fill="#181717" fill-rule="nonzero" points="103.93 22.56 103.93 21.36 103.68 21.34 103.68 22.56 102.63 22.56 102.67 22.75 103.68 22.75 103.68 23.99 103.93 24.01 103.93 22.75 104.98 22.75 104.93 22.56"></polygon>
                        <polygon id="Path" fill="#181717" fill-rule="nonzero" points="14.12 33.23 14.12 32.03 13.88 32.02 13.88 33.23 12.83 33.23 12.87 33.42 13.88 33.42 13.88 34.66 14.12 34.69 14.12 33.42 15.18 33.42 15.13 33.23"></polygon>
                        <polygon id="Path" fill="#181717" fill-rule="nonzero" points="26.95 33.23 26.95 32.03 26.71 32.02 26.71 33.23 25.66 33.23 25.7 33.42 26.71 33.42 26.71 34.66 26.95 34.69 26.95 33.42 28.01 33.42 27.96 33.23"></polygon>
                        <polygon id="Path" fill="#181717" fill-rule="nonzero" points="39.78 33.23 39.78 32.03 39.53 32.02 39.53 33.23 38.49 33.23 38.53 33.42 39.53 33.42 39.53 34.66 39.78 34.69 39.78 33.42 40.84 33.42 40.79 33.23"></polygon>
                        <polygon id="Path" fill="#181717" fill-rule="nonzero" points="52.61 33.23 52.61 32.03 52.36 32.02 52.36 33.23 51.32 33.23 51.36 33.42 52.36 33.42 52.36 34.66 52.61 34.69 52.61 33.42 53.67 33.42 53.62 33.23"></polygon>
                        <polygon id="Path" fill="#181717" fill-rule="nonzero" points="65.44 33.23 65.44 32.03 65.19 32.02 65.19 33.23 64.15 33.23 64.19 33.42 65.19 33.42 65.19 34.66 65.44 34.69 65.44 33.42 66.5 33.42 66.45 33.23"></polygon>
                        <polygon id="Path" fill="#181717" fill-rule="nonzero" points="78.27 33.23 78.27 32.03 78.02 32.02 78.02 33.23 76.97 33.23 77.02 33.42 78.02 33.42 78.02 34.66 78.27 34.69 78.27 33.42 79.33 33.42 79.28 33.23"></polygon>
                        <polygon id="Path" fill="#181717" fill-rule="nonzero" points="91.1 33.23 91.1 32.03 90.85 32.02 90.85 33.23 89.8 33.23 89.84 33.42 90.85 33.42 90.85 34.66 91.1 34.69 91.1 33.42 92.16 33.42 92.11 33.23"></polygon>
                        <polygon id="Path" fill="#181717" fill-rule="nonzero" points="103.93 33.23 103.93 32.03 103.68 32.02 103.68 33.23 102.63 33.23 102.67 33.42 103.68 33.42 103.68 34.66 103.93 34.69 103.93 33.42 104.98 33.42 104.93 33.23"></polygon>
                        <polygon id="Path" fill="#181717" fill-rule="nonzero" points="14.12 43.91 14.12 42.7 13.88 42.69 13.88 43.91 12.83 43.91 12.87 44.09 13.88 44.09 13.88 45.34 14.12 45.36 14.12 44.09 15.18 44.09 15.13 43.91"></polygon>
                        <polygon id="Path" fill="#181717" fill-rule="nonzero" points="26.95 43.91 26.95 42.7 26.71 42.69 26.71 43.91 25.66 43.91 25.7 44.09 26.71 44.09 26.71 45.34 26.95 45.36 26.95 44.09 28.01 44.09 27.96 43.91"></polygon>
                        <polygon id="Path" fill="#181717" fill-rule="nonzero" points="39.78 43.91 39.78 42.7 39.53 42.69 39.53 43.91 38.49 43.91 38.53 44.09 39.53 44.09 39.53 45.34 39.78 45.36 39.78 44.09 40.84 44.09 40.79 43.91"></polygon>
                        <polygon id="Path" fill="#181717" fill-rule="nonzero" points="52.61 43.91 52.61 42.7 52.36 42.69 52.36 43.91 51.32 43.91 51.36 44.09 52.36 44.09 52.36 45.34 52.61 45.36 52.61 44.09 53.67 44.09 53.62 43.91"></polygon>
                        <polygon id="Path" fill="#181717" fill-rule="nonzero" points="65.44 43.91 65.44 42.7 65.19 42.69 65.19 43.91 64.15 43.91 64.19 44.09 65.19 44.09 65.19 45.34 65.44 45.36 65.44 44.09 66.5 44.09 66.45 43.91"></polygon>
                        <polygon id="Path" fill="#181717" fill-rule="nonzero" points="78.27 43.91 78.27 42.7 78.02 42.69 78.02 43.91 76.97 43.91 77.02 44.09 78.02 44.09 78.02 45.34 78.27 45.36 78.27 44.09 79.33 44.09 79.28 43.91"></polygon>
                        <polygon id="Path" fill="#181717" fill-rule="nonzero" points="91.1 43.91 91.1 42.7 90.85 42.69 90.85 43.91 89.8 43.91 89.84 44.09 90.85 44.09 90.85 45.34 91.1 45.36 91.1 44.09 92.16 44.09 92.11 43.91"></polygon>
                        <polygon id="Path" fill="#181717" fill-rule="nonzero" points="103.93 43.91 103.93 42.7 103.68 42.69 103.68 43.91 102.63 43.91 102.67 44.09 103.68 44.09 103.68 45.34 103.93 45.36 103.93 44.09 104.98 44.09 104.93 43.91"></polygon>
                        <polygon id="Path" fill="#181717" fill-rule="nonzero" points="14.12 54.58 14.12 53.38 13.88 53.36 13.88 54.58 12.83 54.58 12.87 54.77 13.88 54.77 13.88 56.01 14.12 56.03 14.12 54.77 15.18 54.77 15.13 54.58"></polygon>
                        <polygon id="Path" fill="#181717" fill-rule="nonzero" points="26.95 54.58 26.95 53.38 26.71 53.36 26.71 54.58 25.66 54.58 25.7 54.77 26.71 54.77 26.71 56.01 26.95 56.03 26.95 54.77 28.01 54.77 27.96 54.58"></polygon>
                        <polygon id="Path" fill="#181717" fill-rule="nonzero" points="39.78 54.58 39.78 53.38 39.53 53.36 39.53 54.58 38.49 54.58 38.53 54.77 39.53 54.77 39.53 56.01 39.78 56.03 39.78 54.77 40.84 54.77 40.79 54.58"></polygon>
                        <polygon id="Path" fill="#181717" fill-rule="nonzero" points="52.61 54.58 52.61 53.38 52.36 53.36 52.36 54.58 51.32 54.58 51.36 54.77 52.36 54.77 52.36 56.01 52.61 56.03 52.61 54.77 53.67 54.77 53.62 54.58"></polygon>
                        <polygon id="Path" fill="#181717" fill-rule="nonzero" points="65.44 54.58 65.44 53.38 65.19 53.36 65.19 54.58 64.15 54.58 64.19 54.77 65.19 54.77 65.19 56.01 65.44 56.03 65.44 54.77 66.5 54.77 66.45 54.58"></polygon>
                        <polygon id="Path" fill="#181717" fill-rule="nonzero" points="78.27 54.58 78.27 53.38 78.02 53.36 78.02 54.58 76.97 54.58 77.02 54.77 78.02 54.77 78.02 56.01 78.27 56.03 78.27 54.77 79.33 54.77 79.28 54.58"></polygon>
                        <polygon id="Path" fill="#181717" fill-rule="nonzero" points="91.1 54.58 91.1 53.38 90.85 53.36 90.85 54.58 89.8 54.58 89.84 54.77 90.85 54.77 90.85 56.01 91.1 56.03 91.1 54.77 92.16 54.77 92.11 54.58"></polygon>
                        <polygon id="Path" fill="#181717" fill-rule="nonzero" points="103.93 54.58 103.93 53.38 103.68 53.36 103.68 54.58 102.63 54.58 102.67 54.77 103.68 54.77 103.68 56.01 103.93 56.03 103.93 54.77 104.98 54.77 104.93 54.58"></polygon>
                        <polygon id="Path" fill="#181717" fill-rule="nonzero" points="14.12 65.25 14.12 64.05 13.88 64.03 13.88 65.25 12.83 65.25 12.87 65.44 13.88 65.44 13.88 66.68 14.12 66.7 14.12 65.44 15.18 65.44 15.13 65.25"></polygon>
                        <polygon id="Path" fill="#181717" fill-rule="nonzero" points="26.95 65.25 26.95 64.05 26.71 64.03 26.71 65.25 25.66 65.25 25.7 65.44 26.71 65.44 26.71 66.68 26.95 66.7 26.95 65.44 28.01 65.44 27.96 65.25"></polygon>
                        <polygon id="Path" fill="#181717" fill-rule="nonzero" points="39.78 65.25 39.78 64.05 39.53 64.03 39.53 65.25 38.49 65.25 38.53 65.44 39.53 65.44 39.53 66.68 39.78 66.7 39.78 65.44 40.84 65.44 40.79 65.25"></polygon>
                        <polygon id="Path" fill="#181717" fill-rule="nonzero" points="52.61 65.25 52.61 64.05 52.36 64.03 52.36 65.25 51.32 65.25 51.36 65.44 52.36 65.44 52.36 66.68 52.61 66.7 52.61 65.44 53.67 65.44 53.62 65.25"></polygon>
                        <polygon id="Path" fill="#181717" fill-rule="nonzero" points="65.44 65.25 65.44 64.05 65.19 64.03 65.19 65.25 64.15 65.25 64.19 65.44 65.19 65.44 65.19 66.68 65.44 66.7 65.44 65.44 66.5 65.44 66.45 65.25"></polygon>
                        <polygon id="Path" fill="#181717" fill-rule="nonzero" points="78.27 65.25 78.27 64.05 78.02 64.03 78.02 65.25 76.97 65.25 77.02 65.44 78.02 65.44 78.02 66.68 78.27 66.7 78.27 65.44 79.33 65.44 79.28 65.25"></polygon>
                        <polygon id="Path" fill="#181717" fill-rule="nonzero" points="91.1 65.25 91.1 64.05 90.85 64.03 90.85 65.25 89.8 65.25 89.84 65.44 90.85 65.44 90.85 66.68 91.1 66.7 91.1 65.44 92.16 65.44 92.11 65.25"></polygon>
                        <polygon id="Path" fill="#181717" fill-rule="nonzero" points="103.93 65.25 103.93 64.05 103.68 64.03 103.68 65.25 102.63 65.25 102.67 65.44 103.68 65.44 103.68 66.68 103.93 66.7 103.93 65.44 104.98 65.44 104.93 65.25"></polygon>
                        <polygon id="Path" fill="#181717" fill-rule="nonzero" points="14.12 75.92 14.12 74.72 13.88 74.7 13.88 75.92 12.83 75.92 12.87 76.11 13.88 76.11 13.88 77.35 14.12 77.37 14.12 76.11 15.18 76.11 15.13 75.92"></polygon>
                        <polygon id="Path" fill="#181717" fill-rule="nonzero" points="26.95 75.92 26.95 74.72 26.71 74.7 26.71 75.92 25.66 75.92 25.7 76.11 26.71 76.11 26.71 77.35 26.95 77.37 26.95 76.11 28.01 76.11 27.96 75.92"></polygon>
                        <polygon id="Path" fill="#181717" fill-rule="nonzero" points="39.78 75.92 39.78 74.72 39.53 74.7 39.53 75.92 38.49 75.92 38.53 76.11 39.53 76.11 39.53 77.35 39.78 77.37 39.78 76.11 40.84 76.11 40.79 75.92"></polygon>
                        <polygon id="Path" fill="#181717" fill-rule="nonzero" points="52.61 75.92 52.61 74.72 52.36 74.7 52.36 75.92 51.32 75.92 51.36 76.11 52.36 76.11 52.36 77.35 52.61 77.37 52.61 76.11 53.67 76.11 53.62 75.92"></polygon>
                        <polygon id="Path" fill="#181717" fill-rule="nonzero" points="65.44 75.92 65.44 74.72 65.19 74.7 65.19 75.92 64.15 75.92 64.19 76.11 65.19 76.11 65.19 77.35 65.44 77.37 65.44 76.11 66.5 76.11 66.45 75.92"></polygon>
                        <polygon id="Path" fill="#181717" fill-rule="nonzero" points="78.27 75.92 78.27 74.72 78.02 74.7 78.02 75.92 76.97 75.92 77.02 76.11 78.02 76.11 78.02 77.35 78.27 77.37 78.27 76.11 79.33 76.11 79.28 75.92"></polygon>
                        <polygon id="Path" fill="#181717" fill-rule="nonzero" points="91.1 75.92 91.1 74.72 90.85 74.7 90.85 75.92 89.8 75.92 89.84 76.11 90.85 76.11 90.85 77.35 91.1 77.37 91.1 76.11 92.16 76.11 92.11 75.92"></polygon>
                        <polygon id="Path" fill="#181717" fill-rule="nonzero" points="103.93 75.92 103.93 74.72 103.68 74.7 103.68 75.92 102.63 75.92 102.67 76.11 103.68 76.11 103.68 77.35 103.93 77.37 103.93 76.11 104.98 76.11 104.93 75.92"></polygon>
                        <polygon id="Path" fill="#181717" fill-rule="nonzero" points="14.12 86.6 14.12 85.39 13.88 85.38 13.88 86.6 12.83 86.6 12.87 86.78 13.88 86.78 13.88 88.03 14.12 88.05 14.12 86.78 15.18 86.78 15.13 86.6"></polygon>
                        <polygon id="Path" fill="#181717" fill-rule="nonzero" points="26.95 86.6 26.95 85.39 26.71 85.38 26.71 86.6 25.66 86.6 25.7 86.78 26.71 86.78 26.71 88.03 26.95 88.05 26.95 86.78 28.01 86.78 27.96 86.6"></polygon>
                        <polygon id="Path" fill="#181717" fill-rule="nonzero" points="39.78 86.6 39.78 85.39 39.53 85.38 39.53 86.6 38.49 86.6 38.53 86.78 39.53 86.78 39.53 88.03 39.78 88.05 39.78 86.78 40.84 86.78 40.79 86.6"></polygon>
                        <polygon id="Path" fill="#181717" fill-rule="nonzero" points="52.61 86.6 52.61 85.39 52.36 85.38 52.36 86.6 51.32 86.6 51.36 86.78 52.36 86.78 52.36 88.03 52.61 88.05 52.61 86.78 53.67 86.78 53.62 86.6"></polygon>
                        <polygon id="Path" fill="#181717" fill-rule="nonzero" points="65.44 86.6 65.44 85.39 65.19 85.38 65.19 86.6 64.15 86.6 64.19 86.78 65.19 86.78 65.19 88.03 65.44 88.05 65.44 86.78 66.5 86.78 66.45 86.6"></polygon>
                        <polygon id="Path" fill="#181717" fill-rule="nonzero" points="78.27 86.6 78.27 85.39 78.02 85.38 78.02 86.6 76.97 86.6 77.02 86.78 78.02 86.78 78.02 88.03 78.27 88.05 78.27 86.78 79.33 86.78 79.28 86.6"></polygon>
                        <polygon id="Path" fill="#181717" fill-rule="nonzero" points="91.1 86.6 91.1 85.39 90.85 85.38 90.85 86.6 89.8 86.6 89.84 86.78 90.85 86.78 90.85 88.03 91.1 88.05 91.1 86.78 92.16 86.78 92.11 86.6"></polygon>
                        <polygon id="Path" fill="#181717" fill-rule="nonzero" points="103.93 86.6 103.93 85.39 103.68 85.38 103.68 86.6 102.63 86.6 102.67 86.78 103.68 86.78 103.68 88.03 103.93 88.05 103.93 86.78 104.98 86.78 104.93 86.6"></polygon>
                        <polygon id="Path" fill="#181717" fill-rule="nonzero" points="14.12 97.27 14.12 96.06 13.88 96.05 13.88 97.27 12.83 97.27 12.87 97.45 13.88 97.45 13.88 98.7 14.12 98.72 14.12 97.45 15.18 97.45 15.13 97.27"></polygon>
                        <polygon id="Path" fill="#181717" fill-rule="nonzero" points="26.95 97.27 26.95 96.06 26.71 96.05 26.71 97.27 25.66 97.27 25.7 97.45 26.71 97.45 26.71 98.7 26.95 98.72 26.95 97.45 28.01 97.45 27.96 97.27"></polygon>
                        <polygon id="Path" fill="#181717" fill-rule="nonzero" points="39.78 97.27 39.78 96.06 39.53 96.05 39.53 97.27 38.49 97.27 38.53 97.45 39.53 97.45 39.53 98.7 39.78 98.72 39.78 97.45 40.84 97.45 40.79 97.27"></polygon>
                        <polygon id="Path" fill="#181717" fill-rule="nonzero" points="52.61 97.27 52.61 96.06 52.36 96.05 52.36 97.27 51.32 97.27 51.36 97.45 52.36 97.45 52.36 98.7 52.61 98.72 52.61 97.45 53.67 97.45 53.62 97.27"></polygon>
                        <polygon id="Path" fill="#181717" fill-rule="nonzero" points="65.44 97.27 65.44 96.06 65.19 96.05 65.19 97.27 64.15 97.27 64.19 97.45 65.19 97.45 65.19 98.7 65.44 98.72 65.44 97.45 66.5 97.45 66.45 97.27"></polygon>
                        <polygon id="Path" fill="#181717" fill-rule="nonzero" points="78.27 97.27 78.27 96.06 78.02 96.05 78.02 97.27 76.97 97.27 77.02 97.45 78.02 97.45 78.02 98.7 78.27 98.72 78.27 97.45 79.33 97.45 79.28 97.27"></polygon>
                        <polygon id="Path" fill="#181717" fill-rule="nonzero" points="91.1 97.27 91.1 96.06 90.85 96.05 90.85 97.27 89.8 97.27 89.84 97.45 90.85 97.45 90.85 98.7 91.1 98.72 91.1 97.45 92.16 97.45 92.11 97.27"></polygon>
                        <polygon id="Path" fill="#181717" fill-rule="nonzero" points="103.93 97.27 103.93 96.06 103.68 96.05 103.68 97.27 102.63 97.27 102.67 97.45 103.68 97.45 103.68 98.7 103.93 98.72 103.93 97.45 104.98 97.45 104.93 97.27"></polygon>
                        <polygon id="Path" fill="#181717" fill-rule="nonzero" points="14.12 107.94 14.12 106.74 13.88 106.72 13.88 107.94 12.83 107.94 12.87 108.13 13.88 108.13 13.88 109.37 14.12 109.39 14.12 108.13 15.18 108.13 15.13 107.94"></polygon>
                        <polygon id="Path" fill="#181717" fill-rule="nonzero" points="26.95 107.94 26.95 106.74 26.71 106.72 26.71 107.94 25.66 107.94 25.7 108.13 26.71 108.13 26.71 109.37 26.95 109.39 26.95 108.13 28.01 108.13 27.96 107.94"></polygon>
                        <polygon id="Path" fill="#181717" fill-rule="nonzero" points="39.78 107.94 39.78 106.74 39.53 106.72 39.53 107.94 38.49 107.94 38.53 108.13 39.53 108.13 39.53 109.37 39.78 109.39 39.78 108.13 40.84 108.13 40.79 107.94"></polygon>
                        <polygon id="Path" fill="#181717" fill-rule="nonzero" points="52.61 107.94 52.61 106.74 52.36 106.72 52.36 107.94 51.32 107.94 51.36 108.13 52.36 108.13 52.36 109.37 52.61 109.39 52.61 108.13 53.67 108.13 53.62 107.94"></polygon>
                        <polygon id="Path" fill="#181717" fill-rule="nonzero" points="65.44 107.94 65.44 106.74 65.19 106.72 65.19 107.94 64.15 107.94 64.19 108.13 65.19 108.13 65.19 109.37 65.44 109.39 65.44 108.13 66.5 108.13 66.45 107.94"></polygon>
                        <polygon id="Path" fill="#181717" fill-rule="nonzero" points="78.27 107.94 78.27 106.74 78.02 106.72 78.02 107.94 76.97 107.94 77.02 108.13 78.02 108.13 78.02 109.37 78.27 109.39 78.27 108.13 79.33 108.13 79.28 107.94"></polygon>
                        <polygon id="Path" fill="#181717" fill-rule="nonzero" points="91.1 107.94 91.1 106.74 90.85 106.72 90.85 107.94 89.8 107.94 89.84 108.13 90.85 108.13 90.85 109.37 91.1 109.39 91.1 108.13 92.16 108.13 92.11 107.94"></polygon>
                        <polygon id="Path" fill="#181717" fill-rule="nonzero" points="103.93 107.94 103.93 106.74 103.68 106.72 103.68 107.94 102.63 107.94 102.67 108.13 103.68 108.13 103.68 109.37 103.93 109.39 103.93 108.13 104.98 108.13 104.93 107.94"></polygon>
                    </g>
                </g>
            </g>
        </g>
    </g>
</svg>